<?xml version="1.0" standalone="no"?>
<!DOCTYPE svg PUBLIC "-//W3C//DTD SVG 20010904//EN"
 "http://www.w3.org/TR/2001/REC-SVG-20010904/DTD/svg10.dtd">
<svg version="1.0" xmlns="http://www.w3.org/2000/svg"
 width="368.000000pt" height="183.000000pt" viewBox="0 0 368.000000 183.000000"
 preserveAspectRatio="xMidYMid meet">

<g transform="translate(0.000000,183.000000) scale(0.100000,-0.100000)"
fill="#000000" stroke="none">
<path d="M2807 1738 c-105 -94 -130 -536 -45 -799 l22 -70 -22 -43 c-28 -52
-129 -176 -144 -176 -6 0 -8 10 -4 23 3 12 9 74 12 137 14 260 -63 470 -241
659 -182 192 -414 270 -690 231 -187 -27 -401 -144 -510 -278 -141 -174 -174
-309 -176 -712 l-1 -265 -15 95 c-9 53 -16 164 -17 250 0 134 3 167 23 240 21
74 24 113 28 300 4 228 -3 305 -27 305 -12 0 -16 -26 -20 -140 -6 -144 -13
-108 -10 48 2 94 -10 128 -36 106 -8 -6 -14 -21 -14 -33 -1 -16 -4 -14 -15 12
-17 39 -40 41 -53 5 -9 -25 -11 -25 -11 -6 -1 12 -5 24 -10 27 -19 12 -34 -27
-38 -97 -2 -39 -8 -136 -14 -214 l-10 -142 31 -91 c16 -50 30 -112 30 -138 l0
-47 -32 39 c-80 98 -235 102 -334 9 -17 -16 -35 -37 -40 -46 -10 -17 -14 -17
-74 -1 -40 10 -83 14 -112 11 -58 -7 -140 -42 -165 -70 -14 -16 -4 -13 41 13
47 27 73 34 130 38 39 2 91 -1 114 -8 39 -10 43 -14 37 -33 -12 -40 -18 -115
-11 -150 8 -44 48 -87 80 -87 32 0 66 43 66 84 -1 42 -31 105 -69 140 -17 17
-31 35 -31 41 0 6 19 30 43 53 112 110 269 91 340 -43 24 -44 26 -116 16 -505
-3 -150 -2 -180 13 -212 30 -66 103 -76 133 -19 31 61 37 124 45 486 7 355 9
374 34 462 66 238 192 383 429 493 131 61 200 73 379 68 128 -4 163 -9 213
-28 204 -78 371 -239 471 -454 55 -121 67 -192 62 -395 l-4 -174 -44 -39 c-49
-44 -173 -122 -210 -133 -24 -8 -24 -7 -7 16 9 13 30 47 46 74 111 188 121
457 25 662 -80 170 -334 313 -556 313 -129 0 -302 -55 -411 -132 -56 -39 -178
-161 -212 -213 -96 -144 -130 -270 -122 -444 16 -339 195 -570 505 -653 108
-28 322 -31 407 -4 268 83 469 244 553 443 12 28 22 58 22 67 0 8 27 43 61 78
33 35 74 87 91 117 27 46 33 51 39 35 13 -33 10 -171 -7 -297 -19 -148 -15
-297 10 -345 14 -27 22 -33 44 -30 21 2 32 14 52 53 25 49 25 53 25 305 l0
255 28 60 c63 134 167 193 262 148 40 -19 42 -27 15 -68 -47 -72 -47 -185 0
-185 70 0 102 95 64 191 l-17 40 44 45 c65 66 156 108 246 113 41 2 73 8 73
14 0 6 -25 8 -70 4 -90 -8 -196 -57 -263 -123 -45 -45 -48 -46 -66 -30 -23 21
-86 31 -134 22 -45 -8 -122 -76 -152 -135 l-24 -46 6 220 c4 178 1 262 -16
444 -12 123 -27 236 -34 250 -16 34 -39 37 -70 9z m60 -19 c8 -16 13 -108 16
-274 3 -214 1 -261 -14 -325 -20 -87 -68 -220 -79 -220 -4 0 -17 37 -30 83
-66 241 -42 632 47 737 29 35 43 35 60 -1z m-1977 -203 c0 -68 3 -131 6 -140
15 -38 21 -8 26 115 3 75 10 135 17 142 8 8 11 -23 11 -118 0 -140 5 -175 25
-175 19 0 25 34 26 160 2 98 3 107 9 60 14 -98 11 -360 -5 -430 -8 -36 -24
-120 -36 -188 l-22 -123 22 -192 c25 -230 26 -303 5 -357 -22 -55 -51 -70 -76
-40 -34 43 -43 98 -39 250 7 256 6 313 -7 435 -8 76 -22 147 -39 192 l-25 72
9 216 c6 136 14 220 21 227 9 9 11 -21 9 -119 -2 -123 3 -156 21 -139 4 4 8
62 10 129 3 131 6 147 22 147 6 0 10 -46 10 -124z m1140 -21 c150 -46 299
-153 358 -258 60 -106 77 -178 77 -327 0 -122 -3 -143 -28 -217 -28 -80 -104
-210 -143 -245 -23 -20 -183 -60 -329 -83 -290 -45 -355 -60 -355 -84 0 -6 12
-18 27 -28 46 -31 206 -30 328 1 123 32 230 82 287 134 24 22 68 50 98 62 30
13 94 49 143 81 50 33 87 53 87 45 0 -7 -16 -45 -35 -83 -101 -202 -360 -374
-620 -413 -101 -15 -275 5 -379 44 -253 95 -406 318 -423 613 -7 115 5 194 44
293 93 235 334 436 576 480 72 12 221 5 287 -15z m867 -112 c-2 -16 -4 -3 -4
27 0 30 2 43 4 28 2 -16 2 -40 0 -55z m20 -205 c-2 -18 -4 -4 -4 32 0 36 2 50
4 33 2 -18 2 -48 0 -65z m-13 -258 c-4 -74 -6 -189 -3 -255 2 -66 4 -183 4
-260 0 -129 -2 -144 -25 -190 -31 -61 -53 -68 -76 -24 -25 50 -29 175 -9 334
12 93 16 175 12 248 -4 102 -3 113 24 184 16 41 37 105 46 141 l17 67 9 -55
c5 -30 5 -116 1 -190z m381 -59 c11 -67 -37 -149 -75 -126 -25 15 -3 140 33
183 15 19 33 -7 42 -57z m-2833 -8 c46 -51 58 -77 58 -124 0 -53 -25 -85 -59
-74 -24 7 -61 80 -61 121 0 37 19 104 29 104 4 0 19 -12 33 -27z m1768 -474
c-81 -70 -259 -128 -415 -136 -92 -5 -164 9 -172 34 -5 15 74 38 182 53 110
16 344 58 380 69 54 17 61 11 25 -20z m-1366 -89 c3 -14 15 -40 26 -57 22 -37
53 -43 82 -16 29 26 21 -3 -10 -38 -21 -24 -33 -30 -49 -25 -29 9 -60 78 -66
146 -5 53 4 48 17 -10z"/>
</g>
</svg>
